# xmcd
#
# Track frame offsets:
#	150
#	22200
#	41100
#	58650
#	76575
#	96300
#	115200
#	133500
#	148575
#	170625
#	189525
#	207075
#	225000
#	244725
#	263625
#	281925
#
# Disc length: 3960 seconds
#
# Revision: 0
# Processed by: cddbd v1.5.2PL0 Copyright (c) Steve Scherf et al.
# Submitted via: dBpowerAMP V4.0
#
DISCID=e10f7610
DTITLE=Many - Party tyme Karaoke Girl country 8
DYEAR=2010
DGENRE=Country
TTITLE0=Lady Antebellum  Need you know
TTITLE1=Carrie Underwood  Cowboy casanova
TTITLE2=Reba  Consider me gone
TTITLE3=Mirand Lambert  White Liar
TTITLE4=Taylor Swift  Today was a fairytale
TTITLE5=Miranda Lambert  The House that built me
TTITLE6=Lady Antebellum  American Honey
TTITLE7=Carrie Underwood   Undo It
TTITLE8=same as 1
TTITLE9=s/a 2
TTITLE10=s/a 3
TTITLE11=s/a/4
TTITLE12=5
TTITLE13=6
TTITLE14=7
TTITLE15=8
EXTD=
EXTT0=
EXTT1=
EXTT2=
EXTT3=
EXTT4=
EXTT5=
EXTT6=
EXTT7=
EXTT8=
EXTT9=
EXTT10=
EXTT11=
EXTT12=
EXTT13=
EXTT14=
EXTT15=
PLAYORDER=
